<mxfile host="app.diagrams.net" agent="Mozilla/5.0 (Windows NT 10.0; Win64; x64) AppleWebKit/537.36 (KHTML, like Gecko) Chrome/133.0.0.0 Safari/537.36" version="26.0.16">
  <diagram name="Page-1" id="hksbCuW23tJVjGmWREl6">
    <mxGraphModel dx="4033" dy="2349" grid="1" gridSize="10" guides="1" tooltips="1" connect="1" arrows="1" fold="1" page="1" pageScale="1" pageWidth="850" pageHeight="1100" math="0" shadow="0">
      <root>
        <mxCell id="0" />
        <mxCell id="1" parent="0" />
        <mxCell id="W9ihRem-RopsjmL4uKQ5-10" value="" style="edgeStyle=none;shape=connector;rounded=0;orthogonalLoop=1;jettySize=auto;html=1;strokeColor=default;align=center;verticalAlign=middle;fontFamily=Helvetica;fontSize=11;fontColor=default;labelBackgroundColor=default;startFill=0;endArrow=none;" parent="1" source="W9ihRem-RopsjmL4uKQ5-13" target="W9ihRem-RopsjmL4uKQ5-146" edge="1">
          <mxGeometry relative="1" as="geometry" />
        </mxCell>
        <mxCell id="W9ihRem-RopsjmL4uKQ5-11" value="" style="edgeStyle=none;shape=connector;rounded=0;orthogonalLoop=1;jettySize=auto;html=1;strokeColor=default;align=center;verticalAlign=middle;fontFamily=Helvetica;fontSize=11;fontColor=default;labelBackgroundColor=default;startFill=0;endArrow=none;" parent="1" source="W9ihRem-RopsjmL4uKQ5-13" target="W9ihRem-RopsjmL4uKQ5-147" edge="1">
          <mxGeometry relative="1" as="geometry" />
        </mxCell>
        <mxCell id="W9ihRem-RopsjmL4uKQ5-12" value="" style="edgeStyle=none;shape=connector;rounded=0;orthogonalLoop=1;jettySize=auto;html=1;strokeColor=default;align=center;verticalAlign=middle;fontFamily=Helvetica;fontSize=11;fontColor=default;labelBackgroundColor=default;startFill=0;endArrow=none;exitX=0;exitY=0.25;exitDx=0;exitDy=0;" parent="1" source="W9ihRem-RopsjmL4uKQ5-13" edge="1">
          <mxGeometry relative="1" as="geometry">
            <mxPoint x="-160" y="530.1816461611311" as="sourcePoint" />
            <mxPoint x="-263.14427664682125" y="555.5584304856711" as="targetPoint" />
          </mxGeometry>
        </mxCell>
        <mxCell id="W9ihRem-RopsjmL4uKQ5-13" value="" style="rounded=0;whiteSpace=wrap;html=1;fontFamily=Helvetica;fontSize=11;fontColor=default;labelBackgroundColor=default;" parent="1" vertex="1">
          <mxGeometry x="-160" y="555" width="180" height="90" as="geometry" />
        </mxCell>
        <mxCell id="W9ihRem-RopsjmL4uKQ5-21" value="" style="edgeStyle=none;shape=connector;rounded=0;orthogonalLoop=1;jettySize=auto;html=1;strokeColor=default;align=center;verticalAlign=middle;fontFamily=Helvetica;fontSize=11;fontColor=default;labelBackgroundColor=default;startFill=0;endArrow=none;" parent="1" source="W9ihRem-RopsjmL4uKQ5-26" target="W9ihRem-RopsjmL4uKQ5-125" edge="1">
          <mxGeometry relative="1" as="geometry" />
        </mxCell>
        <mxCell id="W9ihRem-RopsjmL4uKQ5-22" value="" style="edgeStyle=none;shape=connector;rounded=0;orthogonalLoop=1;jettySize=auto;html=1;strokeColor=default;align=center;verticalAlign=middle;fontFamily=Helvetica;fontSize=11;fontColor=default;labelBackgroundColor=default;startFill=0;endArrow=none;" parent="1" source="W9ihRem-RopsjmL4uKQ5-26" target="W9ihRem-RopsjmL4uKQ5-126" edge="1">
          <mxGeometry relative="1" as="geometry" />
        </mxCell>
        <mxCell id="W9ihRem-RopsjmL4uKQ5-23" value="" style="edgeStyle=none;shape=connector;rounded=0;orthogonalLoop=1;jettySize=auto;html=1;strokeColor=default;align=center;verticalAlign=middle;fontFamily=Helvetica;fontSize=11;fontColor=default;labelBackgroundColor=default;startFill=0;endArrow=none;" parent="1" source="W9ihRem-RopsjmL4uKQ5-26" target="W9ihRem-RopsjmL4uKQ5-127" edge="1">
          <mxGeometry relative="1" as="geometry" />
        </mxCell>
        <mxCell id="W9ihRem-RopsjmL4uKQ5-24" value="" style="edgeStyle=none;shape=connector;rounded=0;orthogonalLoop=1;jettySize=auto;html=1;strokeColor=default;align=center;verticalAlign=middle;fontFamily=Helvetica;fontSize=11;fontColor=default;labelBackgroundColor=default;startFill=0;endArrow=none;" parent="1" source="W9ihRem-RopsjmL4uKQ5-26" target="W9ihRem-RopsjmL4uKQ5-128" edge="1">
          <mxGeometry relative="1" as="geometry" />
        </mxCell>
        <mxCell id="W9ihRem-RopsjmL4uKQ5-26" value="&lt;font style=&quot;font-size: 22px;&quot;&gt;Achievements&lt;/font&gt;" style="rounded=0;whiteSpace=wrap;html=1;" parent="1" vertex="1">
          <mxGeometry x="740" y="440" width="190" height="80" as="geometry" />
        </mxCell>
        <mxCell id="W9ihRem-RopsjmL4uKQ5-28" value="" style="edgeStyle=none;shape=connector;rounded=0;orthogonalLoop=1;jettySize=auto;html=1;strokeColor=default;align=center;verticalAlign=middle;fontFamily=Helvetica;fontSize=11;fontColor=default;labelBackgroundColor=default;startFill=0;endArrow=none;" parent="1" source="W9ihRem-RopsjmL4uKQ5-31" target="W9ihRem-RopsjmL4uKQ5-135" edge="1">
          <mxGeometry relative="1" as="geometry" />
        </mxCell>
        <mxCell id="W9ihRem-RopsjmL4uKQ5-29" value="" style="edgeStyle=none;shape=connector;rounded=0;orthogonalLoop=1;jettySize=auto;html=1;strokeColor=default;align=center;verticalAlign=middle;fontFamily=Helvetica;fontSize=11;fontColor=default;labelBackgroundColor=default;startFill=0;endArrow=none;" parent="1" source="W9ihRem-RopsjmL4uKQ5-31" target="W9ihRem-RopsjmL4uKQ5-136" edge="1">
          <mxGeometry relative="1" as="geometry" />
        </mxCell>
        <mxCell id="W9ihRem-RopsjmL4uKQ5-31" value="&lt;font style=&quot;font-size: 22px;&quot;&gt;Streak&lt;/font&gt;" style="rounded=0;whiteSpace=wrap;html=1;" parent="1" vertex="1">
          <mxGeometry x="720" y="-80" width="120" height="60" as="geometry" />
        </mxCell>
        <mxCell id="W9ihRem-RopsjmL4uKQ5-32" value="" style="edgeStyle=none;shape=connector;rounded=0;orthogonalLoop=1;jettySize=auto;html=1;strokeColor=default;align=center;verticalAlign=middle;fontFamily=Helvetica;fontSize=11;fontColor=default;labelBackgroundColor=default;startFill=0;endArrow=none;" parent="1" target="tIXtD5bHyuyZXCzXMCX1-50" edge="1">
          <mxGeometry relative="1" as="geometry">
            <mxPoint x="-160" y="610" as="sourcePoint" />
            <mxPoint x="-255.86898655682808" y="633.9672466392071" as="targetPoint" />
          </mxGeometry>
        </mxCell>
        <mxCell id="W9ihRem-RopsjmL4uKQ5-33" value="&lt;font style=&quot;font-size: 22px;&quot;&gt;Habit&lt;/font&gt;" style="rounded=0;whiteSpace=wrap;html=1;" parent="1" vertex="1">
          <mxGeometry x="-150" y="565" width="160" height="70" as="geometry" />
        </mxCell>
        <mxCell id="W9ihRem-RopsjmL4uKQ5-34" value="" style="edgeStyle=none;shape=connector;rounded=0;orthogonalLoop=1;jettySize=auto;html=1;strokeColor=default;align=center;verticalAlign=middle;fontFamily=Helvetica;fontSize=11;fontColor=default;labelBackgroundColor=default;startFill=0;endArrow=none;entryX=0;entryY=0.5;entryDx=0;entryDy=0;" parent="1" source="W9ihRem-RopsjmL4uKQ5-39" target="iB2jxMXtepU5a1roNsc_-14" edge="1">
          <mxGeometry relative="1" as="geometry">
            <mxPoint x="563.3857615894044" y="-152.74834437086088" as="targetPoint" />
          </mxGeometry>
        </mxCell>
        <mxCell id="W9ihRem-RopsjmL4uKQ5-35" value="" style="edgeStyle=none;shape=connector;rounded=0;orthogonalLoop=1;jettySize=auto;html=1;strokeColor=default;align=center;verticalAlign=middle;fontFamily=Helvetica;fontSize=11;fontColor=default;labelBackgroundColor=default;startFill=0;endArrow=none;" parent="1" source="W9ihRem-RopsjmL4uKQ5-39" target="W9ihRem-RopsjmL4uKQ5-130" edge="1">
          <mxGeometry relative="1" as="geometry" />
        </mxCell>
        <mxCell id="W9ihRem-RopsjmL4uKQ5-38" value="" style="edgeStyle=none;shape=connector;rounded=0;orthogonalLoop=1;jettySize=auto;html=1;strokeColor=default;align=center;verticalAlign=middle;fontFamily=Helvetica;fontSize=11;fontColor=default;labelBackgroundColor=default;startFill=0;endArrow=none;" parent="1" source="W9ihRem-RopsjmL4uKQ5-39" target="W9ihRem-RopsjmL4uKQ5-133" edge="1">
          <mxGeometry relative="1" as="geometry" />
        </mxCell>
        <mxCell id="W9ihRem-RopsjmL4uKQ5-39" value="&lt;font style=&quot;font-size: 22px;&quot;&gt;Group&lt;/font&gt;" style="rounded=0;whiteSpace=wrap;html=1;" parent="1" vertex="1">
          <mxGeometry x="340" y="-236" width="120" height="60" as="geometry" />
        </mxCell>
        <mxCell id="W9ihRem-RopsjmL4uKQ5-40" style="rounded=0;orthogonalLoop=1;jettySize=auto;html=1;endArrow=none;startFill=0;" parent="1" source="W9ihRem-RopsjmL4uKQ5-53" target="W9ihRem-RopsjmL4uKQ5-70" edge="1">
          <mxGeometry relative="1" as="geometry" />
        </mxCell>
        <mxCell id="W9ihRem-RopsjmL4uKQ5-41" value="" style="shape=connector;rounded=0;orthogonalLoop=1;jettySize=auto;html=1;strokeColor=default;align=center;verticalAlign=middle;fontFamily=Helvetica;fontSize=11;fontColor=default;labelBackgroundColor=default;startFill=0;endArrow=none;" parent="1" source="W9ihRem-RopsjmL4uKQ5-53" edge="1">
          <mxGeometry relative="1" as="geometry">
            <mxPoint x="320.55555555555566" y="479.4444444444448" as="targetPoint" />
          </mxGeometry>
        </mxCell>
        <mxCell id="W9ihRem-RopsjmL4uKQ5-42" value="" style="shape=connector;rounded=0;orthogonalLoop=1;jettySize=auto;html=1;strokeColor=default;align=center;verticalAlign=middle;fontFamily=Helvetica;fontSize=11;fontColor=default;labelBackgroundColor=default;startFill=0;endArrow=none;" parent="1" source="W9ihRem-RopsjmL4uKQ5-53" target="W9ihRem-RopsjmL4uKQ5-76" edge="1">
          <mxGeometry relative="1" as="geometry" />
        </mxCell>
        <mxCell id="W9ihRem-RopsjmL4uKQ5-43" value="" style="edgeStyle=none;shape=connector;rounded=0;orthogonalLoop=1;jettySize=auto;html=1;strokeColor=default;align=center;verticalAlign=middle;fontFamily=Helvetica;fontSize=11;fontColor=default;labelBackgroundColor=default;startFill=0;endArrow=none;" parent="1" source="W9ihRem-RopsjmL4uKQ5-53" edge="1">
          <mxGeometry relative="1" as="geometry">
            <mxPoint x="124.51541850220246" y="509.3171806167402" as="targetPoint" />
          </mxGeometry>
        </mxCell>
        <mxCell id="W9ihRem-RopsjmL4uKQ5-44" value="" style="edgeStyle=none;shape=connector;rounded=0;orthogonalLoop=1;jettySize=auto;html=1;strokeColor=default;align=center;verticalAlign=middle;fontFamily=Helvetica;fontSize=11;fontColor=default;labelBackgroundColor=default;startFill=0;endArrow=none;" parent="1" source="W9ihRem-RopsjmL4uKQ5-53" edge="1">
          <mxGeometry relative="1" as="geometry">
            <mxPoint x="313.98593200468895" y="69.0140679953106" as="targetPoint" />
          </mxGeometry>
        </mxCell>
        <mxCell id="W9ihRem-RopsjmL4uKQ5-45" value="" style="edgeStyle=none;shape=connector;rounded=0;orthogonalLoop=1;jettySize=auto;html=1;strokeColor=default;align=center;verticalAlign=middle;fontFamily=Helvetica;fontSize=11;fontColor=default;labelBackgroundColor=default;startFill=0;endArrow=none;" parent="1" source="W9ihRem-RopsjmL4uKQ5-53" target="W9ihRem-RopsjmL4uKQ5-85" edge="1">
          <mxGeometry relative="1" as="geometry" />
        </mxCell>
        <mxCell id="W9ihRem-RopsjmL4uKQ5-47" value="" style="edgeStyle=none;shape=connector;rounded=0;orthogonalLoop=1;jettySize=auto;html=1;strokeColor=default;align=center;verticalAlign=middle;fontFamily=Helvetica;fontSize=11;fontColor=default;labelBackgroundColor=default;startFill=0;endArrow=none;" parent="1" source="W9ihRem-RopsjmL4uKQ5-53" edge="1">
          <mxGeometry relative="1" as="geometry">
            <mxPoint x="-594.9537591967546" y="-35.641116329658644" as="targetPoint" />
          </mxGeometry>
        </mxCell>
        <mxCell id="W9ihRem-RopsjmL4uKQ5-48" value="" style="edgeStyle=none;shape=connector;rounded=0;orthogonalLoop=1;jettySize=auto;html=1;strokeColor=default;align=center;verticalAlign=middle;fontFamily=Helvetica;fontSize=11;fontColor=default;labelBackgroundColor=default;startFill=0;endArrow=none;" parent="1" source="W9ihRem-RopsjmL4uKQ5-53" target="W9ihRem-RopsjmL4uKQ5-150" edge="1">
          <mxGeometry relative="1" as="geometry" />
        </mxCell>
        <mxCell id="W9ihRem-RopsjmL4uKQ5-49" value="" style="edgeStyle=none;shape=connector;rounded=0;orthogonalLoop=1;jettySize=auto;html=1;strokeColor=default;align=center;verticalAlign=middle;fontFamily=Helvetica;fontSize=11;fontColor=default;labelBackgroundColor=default;startFill=0;endArrow=none;" parent="1" source="W9ihRem-RopsjmL4uKQ5-53" target="W9ihRem-RopsjmL4uKQ5-151" edge="1">
          <mxGeometry relative="1" as="geometry" />
        </mxCell>
        <mxCell id="W9ihRem-RopsjmL4uKQ5-52" value="" style="edgeStyle=none;shape=connector;rounded=0;orthogonalLoop=1;jettySize=auto;html=1;strokeColor=default;align=center;verticalAlign=middle;fontFamily=Helvetica;fontSize=11;fontColor=default;labelBackgroundColor=default;startFill=0;endArrow=none;" parent="1" source="W9ihRem-RopsjmL4uKQ5-53" target="W9ihRem-RopsjmL4uKQ5-154" edge="1">
          <mxGeometry relative="1" as="geometry" />
        </mxCell>
        <mxCell id="W9ihRem-RopsjmL4uKQ5-172" value="" style="rounded=0;orthogonalLoop=1;jettySize=auto;html=1;endArrow=none;startFill=0;" parent="1" source="W9ihRem-RopsjmL4uKQ5-53" target="W9ihRem-RopsjmL4uKQ5-171" edge="1">
          <mxGeometry relative="1" as="geometry" />
        </mxCell>
        <mxCell id="W9ihRem-RopsjmL4uKQ5-53" value="&lt;font style=&quot;font-size: 18px;&quot;&gt;PERSON&lt;/font&gt;" style="rounded=0;whiteSpace=wrap;html=1;" parent="1" vertex="1">
          <mxGeometry x="-485" y="-25" width="120" height="60" as="geometry" />
        </mxCell>
        <mxCell id="W9ihRem-RopsjmL4uKQ5-55" value="" style="edgeStyle=none;shape=connector;rounded=0;orthogonalLoop=1;jettySize=auto;html=1;strokeColor=default;align=center;verticalAlign=middle;fontFamily=Helvetica;fontSize=11;fontColor=default;labelBackgroundColor=default;startFill=0;endArrow=none;" parent="1" source="W9ihRem-RopsjmL4uKQ5-57" target="W9ihRem-RopsjmL4uKQ5-143" edge="1">
          <mxGeometry relative="1" as="geometry" />
        </mxCell>
        <mxCell id="W9ihRem-RopsjmL4uKQ5-56" value="" style="edgeStyle=none;shape=connector;rounded=0;orthogonalLoop=1;jettySize=auto;html=1;strokeColor=default;align=center;verticalAlign=middle;fontFamily=Helvetica;fontSize=11;fontColor=default;labelBackgroundColor=default;startFill=0;endArrow=none;" parent="1" source="W9ihRem-RopsjmL4uKQ5-57" target="W9ihRem-RopsjmL4uKQ5-144" edge="1">
          <mxGeometry relative="1" as="geometry" />
        </mxCell>
        <mxCell id="iB2jxMXtepU5a1roNsc_-18" value="" style="edgeStyle=none;shape=connector;rounded=0;orthogonalLoop=1;jettySize=auto;html=1;strokeColor=default;align=center;verticalAlign=middle;fontFamily=Helvetica;fontSize=11;fontColor=default;labelBackgroundColor=default;startFill=0;endArrow=none;" edge="1" parent="1" target="iB2jxMXtepU5a1roNsc_-17">
          <mxGeometry relative="1" as="geometry">
            <mxPoint x="452.50000000000045" y="687.6259278574921" as="sourcePoint" />
          </mxGeometry>
        </mxCell>
        <mxCell id="W9ihRem-RopsjmL4uKQ5-57" value="&lt;font style=&quot;font-size: 22px;&quot;&gt;Goals&lt;/font&gt;" style="rounded=0;whiteSpace=wrap;html=1;" parent="1" vertex="1">
          <mxGeometry x="452.5" y="670" width="120" height="60" as="geometry" />
        </mxCell>
        <mxCell id="W9ihRem-RopsjmL4uKQ5-59" value="" style="edgeStyle=none;shape=connector;rounded=0;orthogonalLoop=1;jettySize=auto;html=1;strokeColor=default;align=center;verticalAlign=middle;fontFamily=Helvetica;fontSize=11;fontColor=default;labelBackgroundColor=default;startFill=0;endArrow=none;" parent="1" source="W9ihRem-RopsjmL4uKQ5-63" target="W9ihRem-RopsjmL4uKQ5-138" edge="1">
          <mxGeometry relative="1" as="geometry" />
        </mxCell>
        <mxCell id="W9ihRem-RopsjmL4uKQ5-61" value="" style="edgeStyle=none;shape=connector;rounded=0;orthogonalLoop=1;jettySize=auto;html=1;strokeColor=default;align=center;verticalAlign=middle;fontFamily=Helvetica;fontSize=11;fontColor=default;labelBackgroundColor=default;startFill=0;endArrow=none;" parent="1" source="W9ihRem-RopsjmL4uKQ5-63" target="W9ihRem-RopsjmL4uKQ5-140" edge="1">
          <mxGeometry relative="1" as="geometry" />
        </mxCell>
        <mxCell id="W9ihRem-RopsjmL4uKQ5-62" value="" style="edgeStyle=none;shape=connector;rounded=0;orthogonalLoop=1;jettySize=auto;html=1;strokeColor=default;align=center;verticalAlign=middle;fontFamily=Helvetica;fontSize=11;fontColor=default;labelBackgroundColor=default;startFill=0;endArrow=none;" parent="1" source="W9ihRem-RopsjmL4uKQ5-63" target="W9ihRem-RopsjmL4uKQ5-141" edge="1">
          <mxGeometry relative="1" as="geometry" />
        </mxCell>
        <mxCell id="W9ihRem-RopsjmL4uKQ5-63" value="&lt;font style=&quot;font-size: 22px;&quot;&gt;Rewards/Penalties&lt;/font&gt;" style="rounded=0;whiteSpace=wrap;html=1;" parent="1" vertex="1">
          <mxGeometry x="789" y="230" width="240" height="80" as="geometry" />
        </mxCell>
        <mxCell id="W9ihRem-RopsjmL4uKQ5-69" style="shape=connector;rounded=0;orthogonalLoop=1;jettySize=auto;html=1;strokeColor=default;align=center;verticalAlign=middle;fontFamily=Helvetica;fontSize=11;fontColor=default;labelBackgroundColor=default;startFill=0;endArrow=none;" parent="1" source="W9ihRem-RopsjmL4uKQ5-70" target="W9ihRem-RopsjmL4uKQ5-39" edge="1">
          <mxGeometry relative="1" as="geometry" />
        </mxCell>
        <mxCell id="W9ihRem-RopsjmL4uKQ5-70" value="&lt;font style=&quot;font-size: 17px;&quot;&gt;forms&lt;/font&gt;" style="rhombus;whiteSpace=wrap;html=1;" parent="1" vertex="1">
          <mxGeometry x="183" y="-77.5" width="80" height="80" as="geometry" />
        </mxCell>
        <mxCell id="W9ihRem-RopsjmL4uKQ5-71" style="rounded=0;orthogonalLoop=1;jettySize=auto;html=1;entryX=0.5;entryY=0;entryDx=0;entryDy=0;strokeColor=default;align=center;verticalAlign=middle;fontFamily=Helvetica;fontSize=11;fontColor=default;labelBackgroundColor=default;startFill=0;endArrow=none;shape=link;" parent="1" target="W9ihRem-RopsjmL4uKQ5-57" edge="1">
          <mxGeometry relative="1" as="geometry">
            <mxPoint x="339.4000000000001" y="529.4000000000001" as="sourcePoint" />
          </mxGeometry>
        </mxCell>
        <mxCell id="W9ihRem-RopsjmL4uKQ5-75" style="shape=connector;rounded=0;orthogonalLoop=1;jettySize=auto;html=1;strokeColor=default;align=center;verticalAlign=middle;fontFamily=Helvetica;fontSize=11;fontColor=default;labelBackgroundColor=default;startFill=0;endArrow=none;" parent="1" source="W9ihRem-RopsjmL4uKQ5-76" target="W9ihRem-RopsjmL4uKQ5-63" edge="1">
          <mxGeometry relative="1" as="geometry" />
        </mxCell>
        <mxCell id="W9ihRem-RopsjmL4uKQ5-76" value="&lt;font style=&quot;font-size: 16px;&quot;&gt;Earns&lt;/font&gt;" style="rhombus;whiteSpace=wrap;html=1;rounded=0;" parent="1" vertex="1">
          <mxGeometry x="285" y="150" width="95" height="100" as="geometry" />
        </mxCell>
        <mxCell id="W9ihRem-RopsjmL4uKQ5-77" style="edgeStyle=none;shape=link;rounded=0;orthogonalLoop=1;jettySize=auto;html=1;strokeColor=default;align=center;verticalAlign=middle;fontFamily=Helvetica;fontSize=11;fontColor=default;labelBackgroundColor=default;startFill=0;endArrow=none;entryX=1;entryY=0.5;entryDx=0;entryDy=0;" parent="1" target="W9ihRem-RopsjmL4uKQ5-13" edge="1">
          <mxGeometry relative="1" as="geometry">
            <mxPoint x="120" y="590" as="targetPoint" />
            <mxPoint x="116.74357476635487" y="552.5408878504677" as="sourcePoint" />
          </mxGeometry>
        </mxCell>
        <mxCell id="W9ihRem-RopsjmL4uKQ5-79" style="edgeStyle=none;shape=link;rounded=0;orthogonalLoop=1;jettySize=auto;html=1;entryX=0.5;entryY=1;entryDx=0;entryDy=0;strokeColor=default;align=center;verticalAlign=middle;fontFamily=Helvetica;fontSize=11;fontColor=default;labelBackgroundColor=default;startFill=0;endArrow=none;" parent="1" target="W9ihRem-RopsjmL4uKQ5-31" edge="1">
          <mxGeometry relative="1" as="geometry">
            <mxPoint x="400.9356725146199" y="63.93567251461991" as="sourcePoint" />
          </mxGeometry>
        </mxCell>
        <mxCell id="W9ihRem-RopsjmL4uKQ5-81" value="" style="edgeStyle=none;shape=link;rounded=0;orthogonalLoop=1;jettySize=auto;html=1;strokeColor=default;align=center;verticalAlign=middle;fontFamily=Helvetica;fontSize=11;fontColor=default;labelBackgroundColor=default;startFill=0;endArrow=none;exitX=1;exitY=0.5;exitDx=0;exitDy=0;" parent="1" source="iB2jxMXtepU5a1roNsc_-14" target="W9ihRem-RopsjmL4uKQ5-31" edge="1">
          <mxGeometry relative="1" as="geometry">
            <mxPoint x="636.7601102941176" y="-122.62867647058829" as="sourcePoint" />
          </mxGeometry>
        </mxCell>
        <mxCell id="W9ihRem-RopsjmL4uKQ5-83" style="edgeStyle=none;shape=connector;rounded=0;orthogonalLoop=1;jettySize=auto;html=1;exitX=0.5;exitY=1;exitDx=0;exitDy=0;strokeColor=default;align=center;verticalAlign=middle;fontFamily=Helvetica;fontSize=11;fontColor=default;labelBackgroundColor=default;startFill=0;endArrow=none;" parent="1" source="W9ihRem-RopsjmL4uKQ5-31" target="W9ihRem-RopsjmL4uKQ5-31" edge="1">
          <mxGeometry relative="1" as="geometry" />
        </mxCell>
        <mxCell id="W9ihRem-RopsjmL4uKQ5-84" style="edgeStyle=none;shape=connector;rounded=0;orthogonalLoop=1;jettySize=auto;html=1;entryX=0;entryY=0.5;entryDx=0;entryDy=0;strokeColor=default;align=center;verticalAlign=middle;fontFamily=Helvetica;fontSize=11;fontColor=default;labelBackgroundColor=default;startFill=0;endArrow=none;" parent="1" source="W9ihRem-RopsjmL4uKQ5-85" target="W9ihRem-RopsjmL4uKQ5-26" edge="1">
          <mxGeometry relative="1" as="geometry" />
        </mxCell>
        <mxCell id="W9ihRem-RopsjmL4uKQ5-85" value="&lt;font style=&quot;font-size: 16px;&quot;&gt;Earns&lt;/font&gt;" style="rhombus;whiteSpace=wrap;html=1;rounded=0;" parent="1" vertex="1">
          <mxGeometry x="337.5" y="317" width="80" height="80" as="geometry" />
        </mxCell>
        <mxCell id="W9ihRem-RopsjmL4uKQ5-94" value="N" style="text;html=1;align=center;verticalAlign=middle;resizable=0;points=[];autosize=1;strokeColor=none;fillColor=none;fontFamily=Helvetica;fontSize=11;fontColor=default;labelBackgroundColor=default;" parent="1" vertex="1">
          <mxGeometry x="273" y="160" width="30" height="30" as="geometry" />
        </mxCell>
        <mxCell id="W9ihRem-RopsjmL4uKQ5-95" value="N" style="text;html=1;align=center;verticalAlign=middle;resizable=0;points=[];autosize=1;strokeColor=none;fillColor=none;fontFamily=Helvetica;fontSize=11;fontColor=default;labelBackgroundColor=default;" parent="1" vertex="1">
          <mxGeometry x="365" y="170" width="30" height="30" as="geometry" />
        </mxCell>
        <mxCell id="W9ihRem-RopsjmL4uKQ5-96" value="N" style="text;html=1;align=center;verticalAlign=middle;resizable=0;points=[];autosize=1;strokeColor=none;fillColor=none;fontFamily=Helvetica;fontSize=11;fontColor=default;labelBackgroundColor=default;" parent="1" vertex="1">
          <mxGeometry x="175" y="-20.5" width="30" height="30" as="geometry" />
        </mxCell>
        <mxCell id="W9ihRem-RopsjmL4uKQ5-97" value="1" style="text;html=1;align=center;verticalAlign=middle;resizable=0;points=[];autosize=1;strokeColor=none;fillColor=none;fontFamily=Helvetica;fontSize=11;fontColor=default;labelBackgroundColor=default;" parent="1" vertex="1">
          <mxGeometry x="233" y="-90" width="30" height="30" as="geometry" />
        </mxCell>
        <mxCell id="W9ihRem-RopsjmL4uKQ5-102" value="N" style="text;html=1;align=center;verticalAlign=middle;resizable=0;points=[];autosize=1;strokeColor=none;fillColor=none;fontFamily=Helvetica;fontSize=11;fontColor=default;labelBackgroundColor=default;" parent="1" vertex="1">
          <mxGeometry x="332.5" y="300" width="30" height="30" as="geometry" />
        </mxCell>
        <mxCell id="W9ihRem-RopsjmL4uKQ5-103" value="N" style="text;html=1;align=center;verticalAlign=middle;resizable=0;points=[];autosize=1;strokeColor=none;fillColor=none;fontFamily=Helvetica;fontSize=11;fontColor=default;labelBackgroundColor=default;" parent="1" vertex="1">
          <mxGeometry x="422.5" y="350" width="30" height="30" as="geometry" />
        </mxCell>
        <mxCell id="W9ihRem-RopsjmL4uKQ5-104" value="1" style="text;html=1;align=center;verticalAlign=middle;resizable=0;points=[];autosize=1;strokeColor=none;fillColor=none;fontFamily=Helvetica;fontSize=11;fontColor=default;labelBackgroundColor=default;" parent="1" vertex="1">
          <mxGeometry x="310" y="440" width="30" height="30" as="geometry" />
        </mxCell>
        <mxCell id="W9ihRem-RopsjmL4uKQ5-105" value="N" style="text;html=1;align=center;verticalAlign=middle;resizable=0;points=[];autosize=1;strokeColor=none;fillColor=none;fontFamily=Helvetica;fontSize=11;fontColor=default;labelBackgroundColor=default;" parent="1" vertex="1">
          <mxGeometry x="362.5" y="525" width="30" height="30" as="geometry" />
        </mxCell>
        <mxCell id="W9ihRem-RopsjmL4uKQ5-106" value="1" style="text;html=1;align=center;verticalAlign=middle;resizable=0;points=[];autosize=1;strokeColor=none;fillColor=none;fontFamily=Helvetica;fontSize=11;fontColor=default;labelBackgroundColor=default;" parent="1" vertex="1">
          <mxGeometry x="12.5" y="378" width="30" height="30" as="geometry" />
        </mxCell>
        <mxCell id="W9ihRem-RopsjmL4uKQ5-107" value="N" style="text;html=1;align=center;verticalAlign=middle;resizable=0;points=[];autosize=1;strokeColor=none;fillColor=none;fontFamily=Helvetica;fontSize=11;fontColor=default;labelBackgroundColor=default;" parent="1" vertex="1">
          <mxGeometry x="50" y="545" width="30" height="30" as="geometry" />
        </mxCell>
        <mxCell id="W9ihRem-RopsjmL4uKQ5-108" value="1" style="text;html=1;align=center;verticalAlign=middle;resizable=0;points=[];autosize=1;strokeColor=none;fillColor=none;fontFamily=Helvetica;fontSize=11;fontColor=default;labelBackgroundColor=default;" parent="1" vertex="1">
          <mxGeometry x="530" y="-132" width="30" height="30" as="geometry" />
        </mxCell>
        <mxCell id="W9ihRem-RopsjmL4uKQ5-109" value="1" style="text;html=1;align=center;verticalAlign=middle;resizable=0;points=[];autosize=1;strokeColor=none;fillColor=none;fontFamily=Helvetica;fontSize=11;fontColor=default;labelBackgroundColor=default;" parent="1" vertex="1">
          <mxGeometry x="625" y="-120" width="30" height="30" as="geometry" />
        </mxCell>
        <mxCell id="W9ihRem-RopsjmL4uKQ5-110" value="1" style="text;html=1;align=center;verticalAlign=middle;resizable=0;points=[];autosize=1;strokeColor=none;fillColor=none;fontFamily=Helvetica;fontSize=11;fontColor=default;labelBackgroundColor=default;" parent="1" vertex="1">
          <mxGeometry x="295" y="31" width="30" height="30" as="geometry" />
        </mxCell>
        <mxCell id="W9ihRem-RopsjmL4uKQ5-111" value="1" style="text;html=1;align=center;verticalAlign=middle;resizable=0;points=[];autosize=1;strokeColor=none;fillColor=none;fontFamily=Helvetica;fontSize=11;fontColor=default;labelBackgroundColor=default;" parent="1" vertex="1">
          <mxGeometry x="395" y="28" width="30" height="30" as="geometry" />
        </mxCell>
        <mxCell id="W9ihRem-RopsjmL4uKQ5-125" value="&lt;font style=&quot;font-size: 18px;&quot;&gt;Description&lt;/font&gt;" style="ellipse;whiteSpace=wrap;html=1;rounded=0;fontFamily=Helvetica;fontSize=11;fontColor=default;labelBackgroundColor=default;" parent="1" vertex="1">
          <mxGeometry x="1180" y="440" width="130" height="85" as="geometry" />
        </mxCell>
        <mxCell id="W9ihRem-RopsjmL4uKQ5-126" value="&lt;font style=&quot;font-size: 18px;&quot;&gt;Name&lt;/font&gt;" style="ellipse;whiteSpace=wrap;html=1;rounded=0;fontFamily=Helvetica;fontSize=11;fontColor=default;labelBackgroundColor=default;" parent="1" vertex="1">
          <mxGeometry x="1190" y="360" width="130" height="70" as="geometry" />
        </mxCell>
        <mxCell id="W9ihRem-RopsjmL4uKQ5-127" value="&lt;font style=&quot;font-size: 17px;&quot;&gt;Locked Status&lt;/font&gt;" style="ellipse;whiteSpace=wrap;html=1;rounded=0;fontFamily=Helvetica;fontSize=11;fontColor=default;labelBackgroundColor=default;" parent="1" vertex="1">
          <mxGeometry x="1200" y="548" width="145" height="82" as="geometry" />
        </mxCell>
        <mxCell id="W9ihRem-RopsjmL4uKQ5-128" value="&lt;u&gt;&lt;font style=&quot;font-size: 18px;&quot;&gt;ACHIEVEMENTID&lt;/font&gt;&lt;/u&gt;" style="ellipse;whiteSpace=wrap;html=1;rounded=0;fontFamily=Helvetica;fontSize=11;fontColor=default;labelBackgroundColor=default;" parent="1" vertex="1">
          <mxGeometry x="770" y="340" width="200" height="85" as="geometry" />
        </mxCell>
        <mxCell id="W9ihRem-RopsjmL4uKQ5-130" value="&lt;font style=&quot;font-size: 17px;&quot;&gt;&lt;u&gt;GROUPID&lt;/u&gt;&lt;/font&gt;" style="ellipse;whiteSpace=wrap;html=1;rounded=0;fontFamily=Helvetica;fontSize=11;fontColor=default;labelBackgroundColor=default;" parent="1" vertex="1">
          <mxGeometry x="262.5" y="-360" width="130" height="80" as="geometry" />
        </mxCell>
        <mxCell id="W9ihRem-RopsjmL4uKQ5-133" value="&lt;font style=&quot;font-size: 17px;&quot;&gt;CreatedDate&lt;/font&gt;" style="ellipse;whiteSpace=wrap;html=1;rounded=0;fontFamily=Helvetica;fontSize=11;fontColor=default;labelBackgroundColor=default;" parent="1" vertex="1">
          <mxGeometry x="442.5" y="-360" width="135" height="90" as="geometry" />
        </mxCell>
        <mxCell id="W9ihRem-RopsjmL4uKQ5-135" value="&lt;font style=&quot;font-size: 18px;&quot;&gt;Start_Time&lt;/font&gt;" style="ellipse;whiteSpace=wrap;html=1;rounded=0;fontFamily=Helvetica;fontSize=11;fontColor=default;labelBackgroundColor=default;" parent="1" vertex="1">
          <mxGeometry x="910" y="-215" width="140" height="70" as="geometry" />
        </mxCell>
        <mxCell id="W9ihRem-RopsjmL4uKQ5-136" value="&lt;font style=&quot;font-size: 18px;&quot;&gt;End_Time&lt;/font&gt;" style="ellipse;whiteSpace=wrap;html=1;rounded=0;fontFamily=Helvetica;fontSize=11;fontColor=default;labelBackgroundColor=default;" parent="1" vertex="1">
          <mxGeometry x="980" y="-140" width="150" height="80" as="geometry" />
        </mxCell>
        <mxCell id="W9ihRem-RopsjmL4uKQ5-138" value="&lt;font style=&quot;font-size: 14px;&quot;&gt;&lt;u style=&quot;&quot;&gt;REWARDPENALTYID&lt;/u&gt;&lt;/font&gt;" style="ellipse;whiteSpace=wrap;html=1;rounded=0;fontFamily=Helvetica;fontSize=11;fontColor=default;labelBackgroundColor=default;" parent="1" vertex="1">
          <mxGeometry x="922.5" y="61" width="165" height="80" as="geometry" />
        </mxCell>
        <mxCell id="W9ihRem-RopsjmL4uKQ5-140" value="&lt;font style=&quot;font-size: 18px;&quot;&gt;Type&lt;/font&gt;" style="ellipse;whiteSpace=wrap;html=1;rounded=0;fontFamily=Helvetica;fontSize=11;fontColor=default;labelBackgroundColor=default;" parent="1" vertex="1">
          <mxGeometry x="1121" y="80" width="160" height="90" as="geometry" />
        </mxCell>
        <mxCell id="W9ihRem-RopsjmL4uKQ5-141" value="&lt;font style=&quot;font-size: 18px;&quot;&gt;Description&lt;/font&gt;" style="ellipse;whiteSpace=wrap;html=1;rounded=0;fontFamily=Helvetica;fontSize=11;fontColor=default;labelBackgroundColor=default;" parent="1" vertex="1">
          <mxGeometry x="1290" y="160" width="150" height="100" as="geometry" />
        </mxCell>
        <mxCell id="W9ihRem-RopsjmL4uKQ5-143" value="&lt;font style=&quot;font-size: 17px;&quot;&gt;Target&lt;/font&gt;" style="ellipse;whiteSpace=wrap;html=1;rounded=0;fontFamily=Helvetica;fontSize=11;fontColor=default;labelBackgroundColor=default;" parent="1" vertex="1">
          <mxGeometry x="302.5" y="726.5" width="105" height="67" as="geometry" />
        </mxCell>
        <mxCell id="W9ihRem-RopsjmL4uKQ5-144" value="&lt;font style=&quot;font-size: 16px;&quot;&gt;Status&lt;/font&gt;" style="ellipse;whiteSpace=wrap;html=1;rounded=0;fontFamily=Helvetica;fontSize=11;fontColor=default;labelBackgroundColor=default;" parent="1" vertex="1">
          <mxGeometry x="560" y="763" width="125" height="57" as="geometry" />
        </mxCell>
        <mxCell id="W9ihRem-RopsjmL4uKQ5-146" value="&lt;font style=&quot;font-size: 17px;&quot;&gt;Name&lt;/font&gt;" style="ellipse;whiteSpace=wrap;html=1;fontSize=11;rounded=0;labelBackgroundColor=default;fontFamily=Helvetica;fontColor=default;" parent="1" vertex="1">
          <mxGeometry x="-320" y="710" width="130" height="70" as="geometry" />
        </mxCell>
        <mxCell id="W9ihRem-RopsjmL4uKQ5-147" value="&lt;font style=&quot;font-size: 18px;&quot;&gt;Status&lt;/font&gt;" style="ellipse;whiteSpace=wrap;html=1;fontSize=11;rounded=0;labelBackgroundColor=default;fontFamily=Helvetica;fontColor=default;" parent="1" vertex="1">
          <mxGeometry x="-155" y="760" width="115" height="80" as="geometry" />
        </mxCell>
        <mxCell id="W9ihRem-RopsjmL4uKQ5-150" value="&lt;font style=&quot;font-size: 16px;&quot;&gt;EMAIL&lt;/font&gt;" style="ellipse;whiteSpace=wrap;html=1;rounded=0;fontFamily=Helvetica;fontSize=11;fontColor=default;labelBackgroundColor=default;" parent="1" vertex="1">
          <mxGeometry x="-875" y="-37" width="115" height="68" as="geometry" />
        </mxCell>
        <mxCell id="W9ihRem-RopsjmL4uKQ5-151" value="&lt;font style=&quot;font-size: 15px;&quot;&gt;PASSHASH&lt;/font&gt;" style="ellipse;whiteSpace=wrap;html=1;rounded=0;fontFamily=Helvetica;fontSize=11;fontColor=default;labelBackgroundColor=default;" parent="1" vertex="1">
          <mxGeometry x="-770" y="20" width="122" height="73" as="geometry" />
        </mxCell>
        <mxCell id="W9ihRem-RopsjmL4uKQ5-154" value="&lt;font style=&quot;font-size: 17px;&quot;&gt;Name&lt;/font&gt;" style="ellipse;whiteSpace=wrap;html=1;rounded=0;fontFamily=Helvetica;fontSize=11;fontColor=default;labelBackgroundColor=default;" parent="1" vertex="1">
          <mxGeometry x="-600" y="-140" width="135" height="70" as="geometry" />
        </mxCell>
        <mxCell id="W9ihRem-RopsjmL4uKQ5-165" value="" style="rounded=0;orthogonalLoop=1;jettySize=auto;html=1;exitX=0.5;exitY=0;exitDx=0;exitDy=0;endArrow=none;startFill=0;" parent="1" source="W9ihRem-RopsjmL4uKQ5-31" target="W9ihRem-RopsjmL4uKQ5-164" edge="1">
          <mxGeometry relative="1" as="geometry">
            <mxPoint x="790" y="-90" as="sourcePoint" />
          </mxGeometry>
        </mxCell>
        <mxCell id="W9ihRem-RopsjmL4uKQ5-162" value="&lt;font style=&quot;font-size: 18px;&quot;&gt;STREAK&lt;/font&gt;" style="rounded=0;whiteSpace=wrap;html=1;" parent="1" vertex="1">
          <mxGeometry x="725" y="-75" width="110" height="50" as="geometry" />
        </mxCell>
        <mxCell id="W9ihRem-RopsjmL4uKQ5-164" value="&lt;font style=&quot;font-size: 18px;&quot;&gt;STREAKID&lt;/font&gt;" style="ellipse;whiteSpace=wrap;html=1;rounded=0;" parent="1" vertex="1">
          <mxGeometry x="760" y="-220" width="140" height="80" as="geometry" />
        </mxCell>
        <mxCell id="W9ihRem-RopsjmL4uKQ5-166" value="" style="endArrow=none;dashed=1;html=1;rounded=0;" parent="1" edge="1">
          <mxGeometry width="50" height="50" relative="1" as="geometry">
            <mxPoint x="795" y="-170" as="sourcePoint" />
            <mxPoint x="865" y="-170" as="targetPoint" />
          </mxGeometry>
        </mxCell>
        <mxCell id="W9ihRem-RopsjmL4uKQ5-174" value="" style="rounded=0;orthogonalLoop=1;jettySize=auto;html=1;endArrow=none;startFill=0;" parent="1" source="W9ihRem-RopsjmL4uKQ5-171" target="W9ihRem-RopsjmL4uKQ5-173" edge="1">
          <mxGeometry relative="1" as="geometry" />
        </mxCell>
        <mxCell id="W9ihRem-RopsjmL4uKQ5-176" value="" style="shape=connector;rounded=0;orthogonalLoop=1;jettySize=auto;html=1;strokeColor=default;align=center;verticalAlign=middle;fontFamily=Helvetica;fontSize=11;fontColor=default;labelBackgroundColor=default;startFill=0;endArrow=none;" parent="1" source="W9ihRem-RopsjmL4uKQ5-171" target="W9ihRem-RopsjmL4uKQ5-175" edge="1">
          <mxGeometry relative="1" as="geometry" />
        </mxCell>
        <mxCell id="W9ihRem-RopsjmL4uKQ5-171" value="&lt;font style=&quot;font-size: 18px;&quot;&gt;d&lt;/font&gt;" style="ellipse;whiteSpace=wrap;html=1;rounded=0;" parent="1" vertex="1">
          <mxGeometry x="-332.5" y="-145" width="42.5" height="45" as="geometry" />
        </mxCell>
        <mxCell id="iB2jxMXtepU5a1roNsc_-9" value="" style="edgeStyle=none;shape=connector;rounded=0;orthogonalLoop=1;jettySize=auto;html=1;strokeColor=default;align=center;verticalAlign=middle;fontFamily=Helvetica;fontSize=11;fontColor=default;labelBackgroundColor=default;startFill=0;endArrow=none;" edge="1" parent="1" source="W9ihRem-RopsjmL4uKQ5-173" target="iB2jxMXtepU5a1roNsc_-8">
          <mxGeometry relative="1" as="geometry" />
        </mxCell>
        <mxCell id="iB2jxMXtepU5a1roNsc_-12" value="" style="edgeStyle=none;shape=connector;rounded=0;orthogonalLoop=1;jettySize=auto;html=1;strokeColor=default;align=center;verticalAlign=middle;fontFamily=Helvetica;fontSize=11;fontColor=default;labelBackgroundColor=default;startFill=0;endArrow=none;" edge="1" parent="1" source="W9ihRem-RopsjmL4uKQ5-173" target="iB2jxMXtepU5a1roNsc_-11">
          <mxGeometry relative="1" as="geometry" />
        </mxCell>
        <mxCell id="W9ihRem-RopsjmL4uKQ5-173" value="&lt;font style=&quot;font-size: 18px;&quot;&gt;ADMIN&lt;/font&gt;" style="whiteSpace=wrap;html=1;rounded=0;" parent="1" vertex="1">
          <mxGeometry x="-455" y="-260" width="120" height="60" as="geometry" />
        </mxCell>
        <mxCell id="iB2jxMXtepU5a1roNsc_-5" value="" style="rounded=0;orthogonalLoop=1;jettySize=auto;html=1;endArrow=none;startFill=0;" edge="1" parent="1" source="W9ihRem-RopsjmL4uKQ5-175" target="iB2jxMXtepU5a1roNsc_-4">
          <mxGeometry relative="1" as="geometry" />
        </mxCell>
        <mxCell id="iB2jxMXtepU5a1roNsc_-7" value="" style="rounded=0;orthogonalLoop=1;jettySize=auto;html=1;endArrow=none;startFill=0;" edge="1" parent="1" source="W9ihRem-RopsjmL4uKQ5-175" target="iB2jxMXtepU5a1roNsc_-6">
          <mxGeometry relative="1" as="geometry" />
        </mxCell>
        <mxCell id="iB2jxMXtepU5a1roNsc_-16" style="edgeStyle=none;shape=connector;rounded=0;orthogonalLoop=1;jettySize=auto;html=1;entryX=0;entryY=1;entryDx=0;entryDy=0;strokeColor=default;align=center;verticalAlign=middle;fontFamily=Helvetica;fontSize=11;fontColor=default;labelBackgroundColor=default;startFill=0;endArrow=none;" edge="1" parent="1" source="W9ihRem-RopsjmL4uKQ5-175" target="iB2jxMXtepU5a1roNsc_-15">
          <mxGeometry relative="1" as="geometry" />
        </mxCell>
        <mxCell id="W9ihRem-RopsjmL4uKQ5-175" value="&lt;font style=&quot;font-size: 18px;&quot;&gt;USER&lt;/font&gt;" style="whiteSpace=wrap;html=1;rounded=0;" parent="1" vertex="1">
          <mxGeometry x="-230" y="-200" width="120" height="60" as="geometry" />
        </mxCell>
        <mxCell id="W9ihRem-RopsjmL4uKQ5-179" value="GOALS" style="rounded=0;whiteSpace=wrap;html=1;fontFamily=Helvetica;fontSize=11;fontColor=default;labelBackgroundColor=default;" parent="1" vertex="1">
          <mxGeometry x="457.5" y="675" width="110" height="50" as="geometry" />
        </mxCell>
        <mxCell id="tIXtD5bHyuyZXCzXMCX1-1" value="&lt;span style=&quot;border-bottom: 1px dotted&quot;&gt;&lt;font style=&quot;font-size: 18px;&quot;&gt;HabitID&lt;/font&gt;&lt;/span&gt;" style="ellipse;whiteSpace=wrap;html=1;align=center;" parent="1" vertex="1">
          <mxGeometry x="-425" y="515" width="160" height="70" as="geometry" />
        </mxCell>
        <mxCell id="tIXtD5bHyuyZXCzXMCX1-5" value="&lt;font style=&quot;font-size: 18px;&quot;&gt;Has&lt;/font&gt;" style="shape=rhombus;double=1;perimeter=rhombusPerimeter;whiteSpace=wrap;html=1;align=center;" parent="1" vertex="1">
          <mxGeometry x="-117.5" y="902" width="160" height="90" as="geometry" />
        </mxCell>
        <mxCell id="iB2jxMXtepU5a1roNsc_-2" value="" style="rounded=0;orthogonalLoop=1;jettySize=auto;html=1;endArrow=none;startFill=0;" edge="1" parent="1" source="tIXtD5bHyuyZXCzXMCX1-8" target="iB2jxMXtepU5a1roNsc_-1">
          <mxGeometry relative="1" as="geometry" />
        </mxCell>
        <mxCell id="tIXtD5bHyuyZXCzXMCX1-8" value="&lt;font style=&quot;font-size: 18px;&quot;&gt;Reminder&lt;/font&gt;" style="shape=ext;margin=3;double=1;whiteSpace=wrap;html=1;align=center;" parent="1" vertex="1">
          <mxGeometry x="-430" y="907" width="160" height="80" as="geometry" />
        </mxCell>
        <mxCell id="tIXtD5bHyuyZXCzXMCX1-9" value="" style="endArrow=none;html=1;rounded=0;entryX=1;entryY=0.5;entryDx=0;entryDy=0;" parent="1" target="tIXtD5bHyuyZXCzXMCX1-5" edge="1">
          <mxGeometry relative="1" as="geometry">
            <mxPoint x="-20" y="645" as="sourcePoint" />
            <mxPoint x="42.5" y="785.91" as="targetPoint" />
          </mxGeometry>
        </mxCell>
        <mxCell id="tIXtD5bHyuyZXCzXMCX1-11" value="" style="shape=link;html=1;rounded=0;" parent="1" edge="1">
          <mxGeometry relative="1" as="geometry">
            <mxPoint x="-270" y="946.09" as="sourcePoint" />
            <mxPoint x="-110" y="946.09" as="targetPoint" />
          </mxGeometry>
        </mxCell>
        <mxCell id="tIXtD5bHyuyZXCzXMCX1-12" value="N" style="resizable=0;html=1;whiteSpace=wrap;align=right;verticalAlign=bottom;" parent="tIXtD5bHyuyZXCzXMCX1-11" connectable="0" vertex="1">
          <mxGeometry x="1" relative="1" as="geometry">
            <mxPoint x="-20" y="-6" as="offset" />
          </mxGeometry>
        </mxCell>
        <mxCell id="tIXtD5bHyuyZXCzXMCX1-13" value="1" style="text;html=1;align=center;verticalAlign=middle;resizable=0;points=[];autosize=1;strokeColor=none;fillColor=none;" parent="1" vertex="1">
          <mxGeometry x="-10" y="860" width="30" height="30" as="geometry" />
        </mxCell>
        <mxCell id="tIXtD5bHyuyZXCzXMCX1-14" value="&lt;span style=&quot;border-bottom: 1px dotted&quot;&gt;&lt;font style=&quot;font-size: 18px;&quot;&gt;ReminderID&lt;/font&gt;&lt;/span&gt;" style="ellipse;whiteSpace=wrap;html=1;align=center;" parent="1" vertex="1">
          <mxGeometry x="-690" y="830" width="140" height="62" as="geometry" />
        </mxCell>
        <mxCell id="tIXtD5bHyuyZXCzXMCX1-15" value="&lt;font style=&quot;font-size: 18px;&quot;&gt;Frequency&lt;/font&gt;" style="ellipse;whiteSpace=wrap;html=1;align=center;" parent="1" vertex="1">
          <mxGeometry x="-640" y="1122" width="140" height="62" as="geometry" />
        </mxCell>
        <mxCell id="tIXtD5bHyuyZXCzXMCX1-16" value="&lt;font style=&quot;font-size: 18px;&quot;&gt;Time&lt;/font&gt;" style="ellipse;whiteSpace=wrap;html=1;align=center;" parent="1" vertex="1">
          <mxGeometry x="-710" y="972" width="150" height="65" as="geometry" />
        </mxCell>
        <mxCell id="tIXtD5bHyuyZXCzXMCX1-18" value="" style="endArrow=none;html=1;rounded=0;entryX=0;entryY=0.5;entryDx=0;entryDy=0;" parent="1" target="tIXtD5bHyuyZXCzXMCX1-8" edge="1">
          <mxGeometry relative="1" as="geometry">
            <mxPoint x="-500" y="1152.44" as="sourcePoint" />
            <mxPoint x="-340" y="1152.44" as="targetPoint" />
          </mxGeometry>
        </mxCell>
        <mxCell id="tIXtD5bHyuyZXCzXMCX1-19" value="" style="endArrow=none;html=1;rounded=0;entryX=0;entryY=0.5;entryDx=0;entryDy=0;" parent="1" target="tIXtD5bHyuyZXCzXMCX1-8" edge="1">
          <mxGeometry relative="1" as="geometry">
            <mxPoint x="-560" y="1003.94" as="sourcePoint" />
            <mxPoint x="-400" y="1003.94" as="targetPoint" />
          </mxGeometry>
        </mxCell>
        <mxCell id="tIXtD5bHyuyZXCzXMCX1-20" value="" style="endArrow=none;html=1;rounded=0;entryX=0;entryY=0.5;entryDx=0;entryDy=0;exitX=1;exitY=0.5;exitDx=0;exitDy=0;" parent="1" source="tIXtD5bHyuyZXCzXMCX1-14" target="tIXtD5bHyuyZXCzXMCX1-8" edge="1">
          <mxGeometry relative="1" as="geometry">
            <mxPoint x="-547.5" y="860.44" as="sourcePoint" />
            <mxPoint x="-387.5" y="860.44" as="targetPoint" />
          </mxGeometry>
        </mxCell>
        <mxCell id="tIXtD5bHyuyZXCzXMCX1-21" value="&lt;font style=&quot;font-size: 18px;&quot;&gt;UserID&lt;/font&gt;" style="ellipse;whiteSpace=wrap;html=1;align=center;fontStyle=4;" parent="1" vertex="1">
          <mxGeometry x="-720" y="-70" width="130" height="60" as="geometry" />
        </mxCell>
        <mxCell id="tIXtD5bHyuyZXCzXMCX1-26" value="" style="endArrow=none;html=1;rounded=0;entryX=0.5;entryY=0;entryDx=0;entryDy=0;" parent="1" target="iB2jxMXtepU5a1roNsc_-3" edge="1">
          <mxGeometry relative="1" as="geometry">
            <mxPoint x="-440" y="35" as="sourcePoint" />
            <mxPoint x="-450" y="230" as="targetPoint" />
          </mxGeometry>
        </mxCell>
        <mxCell id="tIXtD5bHyuyZXCzXMCX1-28" value="&lt;font style=&quot;font-size: 18px;&quot;&gt;1&lt;/font&gt;" style="text;html=1;align=center;verticalAlign=middle;resizable=0;points=[];autosize=1;strokeColor=none;fillColor=none;" parent="1" vertex="1">
          <mxGeometry x="-455" y="170" width="30" height="40" as="geometry" />
        </mxCell>
        <mxCell id="tIXtD5bHyuyZXCzXMCX1-29" value="" style="endArrow=none;html=1;rounded=0;entryX=0.75;entryY=0;entryDx=0;entryDy=0;exitX=0.5;exitY=1;exitDx=0;exitDy=0;shape=link;" parent="1" edge="1" source="iB2jxMXtepU5a1roNsc_-3">
          <mxGeometry relative="1" as="geometry">
            <mxPoint x="-455" y="320" as="sourcePoint" />
            <mxPoint x="-562.5" y="415" as="targetPoint" />
          </mxGeometry>
        </mxCell>
        <mxCell id="tIXtD5bHyuyZXCzXMCX1-30" value="N" style="resizable=0;html=1;whiteSpace=wrap;align=right;verticalAlign=bottom;" parent="tIXtD5bHyuyZXCzXMCX1-29" connectable="0" vertex="1">
          <mxGeometry x="1" relative="1" as="geometry">
            <mxPoint x="53" y="-55" as="offset" />
          </mxGeometry>
        </mxCell>
        <mxCell id="tIXtD5bHyuyZXCzXMCX1-32" value="&lt;font style=&quot;font-size: 18px;&quot;&gt;Date&lt;/font&gt;" style="ellipse;whiteSpace=wrap;html=1;align=center;" parent="1" vertex="1">
          <mxGeometry x="-830" y="600" width="130" height="60" as="geometry" />
        </mxCell>
        <mxCell id="tIXtD5bHyuyZXCzXMCX1-33" value="&lt;font style=&quot;font-size: 18px;&quot;&gt;Text&lt;/font&gt;" style="ellipse;whiteSpace=wrap;html=1;align=center;" parent="1" vertex="1">
          <mxGeometry x="-920" y="502.5" width="120" height="65" as="geometry" />
        </mxCell>
        <mxCell id="tIXtD5bHyuyZXCzXMCX1-34" value="" style="endArrow=none;html=1;rounded=0;entryX=0;entryY=0.5;entryDx=0;entryDy=0;" parent="1" edge="1">
          <mxGeometry relative="1" as="geometry">
            <mxPoint x="-700" y="630" as="sourcePoint" />
            <mxPoint x="-660" y="447.5" as="targetPoint" />
          </mxGeometry>
        </mxCell>
        <mxCell id="tIXtD5bHyuyZXCzXMCX1-35" value="" style="endArrow=none;html=1;rounded=0;entryX=0;entryY=0.5;entryDx=0;entryDy=0;" parent="1" edge="1">
          <mxGeometry relative="1" as="geometry">
            <mxPoint x="-800" y="534.5" as="sourcePoint" />
            <mxPoint x="-660" y="447.5" as="targetPoint" />
          </mxGeometry>
        </mxCell>
        <mxCell id="tIXtD5bHyuyZXCzXMCX1-36" value="" style="endArrow=none;html=1;rounded=0;entryX=0;entryY=0.5;entryDx=0;entryDy=0;" parent="1" edge="1">
          <mxGeometry relative="1" as="geometry">
            <mxPoint x="-790" y="430" as="sourcePoint" />
            <mxPoint x="-660" y="447.5" as="targetPoint" />
          </mxGeometry>
        </mxCell>
        <mxCell id="tIXtD5bHyuyZXCzXMCX1-42" value="" style="shape=link;html=1;rounded=0;entryX=0;entryY=0.5;entryDx=0;entryDy=0;" parent="1" edge="1">
          <mxGeometry relative="1" as="geometry">
            <mxPoint x="-530" y="447" as="sourcePoint" />
            <mxPoint x="-360" y="397.5" as="targetPoint" />
          </mxGeometry>
        </mxCell>
        <mxCell id="tIXtD5bHyuyZXCzXMCX1-43" value="N" style="resizable=0;html=1;whiteSpace=wrap;align=right;verticalAlign=bottom;" parent="tIXtD5bHyuyZXCzXMCX1-42" connectable="0" vertex="1">
          <mxGeometry x="1" relative="1" as="geometry">
            <mxPoint x="-20" y="-1" as="offset" />
          </mxGeometry>
        </mxCell>
        <mxCell id="tIXtD5bHyuyZXCzXMCX1-44" value="" style="endArrow=none;html=1;rounded=0;entryX=0.5;entryY=0;entryDx=0;entryDy=0;" parent="1" target="W9ihRem-RopsjmL4uKQ5-13" edge="1">
          <mxGeometry relative="1" as="geometry">
            <mxPoint x="-230" y="397" as="sourcePoint" />
            <mxPoint x="-70" y="397" as="targetPoint" />
          </mxGeometry>
        </mxCell>
        <mxCell id="tIXtD5bHyuyZXCzXMCX1-45" value="1" style="resizable=0;html=1;whiteSpace=wrap;align=right;verticalAlign=bottom;" parent="tIXtD5bHyuyZXCzXMCX1-44" connectable="0" vertex="1">
          <mxGeometry x="1" relative="1" as="geometry">
            <mxPoint x="-130" y="-140" as="offset" />
          </mxGeometry>
        </mxCell>
        <mxCell id="tIXtD5bHyuyZXCzXMCX1-48" value="&lt;span style=&quot;border-bottom: 1px dotted&quot;&gt;&lt;font style=&quot;font-size: 18px;&quot;&gt;Goal_ID&lt;/font&gt;&lt;/span&gt;" style="ellipse;whiteSpace=wrap;html=1;align=center;" parent="1" vertex="1">
          <mxGeometry x="402.5" y="803.5" width="110" height="48.5" as="geometry" />
        </mxCell>
        <mxCell id="tIXtD5bHyuyZXCzXMCX1-49" value="" style="endArrow=none;html=1;rounded=0;entryX=0.5;entryY=0;entryDx=0;entryDy=0;" parent="1" target="tIXtD5bHyuyZXCzXMCX1-48" edge="1">
          <mxGeometry relative="1" as="geometry">
            <mxPoint x="485" y="730" as="sourcePoint" />
            <mxPoint x="645" y="730" as="targetPoint" />
          </mxGeometry>
        </mxCell>
        <mxCell id="tIXtD5bHyuyZXCzXMCX1-50" value="&amp;nbsp;&lt;font style=&quot;font-size: 18px;&quot;&gt;Date&lt;/font&gt;" style="ellipse;whiteSpace=wrap;html=1;align=center;" parent="1" vertex="1">
          <mxGeometry x="-410" y="630" width="135.87" height="56.03" as="geometry" />
        </mxCell>
        <mxCell id="tIXtD5bHyuyZXCzXMCX1-52" value="&lt;font style=&quot;font-size: 18px;&quot;&gt;Start Date&lt;/font&gt;" style="ellipse;whiteSpace=wrap;html=1;align=center;" parent="1" vertex="1">
          <mxGeometry x="-590" y="630" width="110" height="50" as="geometry" />
        </mxCell>
        <mxCell id="tIXtD5bHyuyZXCzXMCX1-53" value="&lt;font style=&quot;font-size: 18px;&quot;&gt;End Date&lt;/font&gt;" style="ellipse;whiteSpace=wrap;html=1;align=center;" parent="1" vertex="1">
          <mxGeometry x="-585" y="715" width="105" height="55" as="geometry" />
        </mxCell>
        <mxCell id="tIXtD5bHyuyZXCzXMCX1-54" value="" style="endArrow=none;html=1;rounded=0;entryX=0;entryY=0.5;entryDx=0;entryDy=0;" parent="1" target="tIXtD5bHyuyZXCzXMCX1-50" edge="1">
          <mxGeometry relative="1" as="geometry">
            <mxPoint x="-480" y="654.29" as="sourcePoint" />
            <mxPoint x="-320" y="654.29" as="targetPoint" />
          </mxGeometry>
        </mxCell>
        <mxCell id="tIXtD5bHyuyZXCzXMCX1-55" value="" style="endArrow=none;html=1;rounded=0;entryX=0;entryY=0.5;entryDx=0;entryDy=0;" parent="1" target="tIXtD5bHyuyZXCzXMCX1-50" edge="1">
          <mxGeometry relative="1" as="geometry">
            <mxPoint x="-480" y="741.79" as="sourcePoint" />
            <mxPoint x="-320" y="741.79" as="targetPoint" />
          </mxGeometry>
        </mxCell>
        <mxCell id="tIXtD5bHyuyZXCzXMCX1-57" value="&lt;font style=&quot;font-size: 14px;&quot;&gt;Contributes to&amp;nbsp;&lt;/font&gt;" style="shape=rhombus;perimeter=rhombusPerimeter;whiteSpace=wrap;html=1;align=center;" parent="1" vertex="1">
          <mxGeometry x="593" y="100" width="140" height="80" as="geometry" />
        </mxCell>
        <mxCell id="tIXtD5bHyuyZXCzXMCX1-58" value="" style="endArrow=none;html=1;rounded=0;entryX=0;entryY=0;entryDx=0;entryDy=0;exitX=0.5;exitY=1;exitDx=0;exitDy=0;" parent="1" source="tIXtD5bHyuyZXCzXMCX1-57" target="W9ihRem-RopsjmL4uKQ5-26" edge="1">
          <mxGeometry relative="1" as="geometry">
            <mxPoint x="705" y="160" as="sourcePoint" />
            <mxPoint x="865" y="160" as="targetPoint" />
          </mxGeometry>
        </mxCell>
        <mxCell id="tIXtD5bHyuyZXCzXMCX1-59" value="N" style="resizable=0;html=1;whiteSpace=wrap;align=right;verticalAlign=bottom;" parent="tIXtD5bHyuyZXCzXMCX1-58" connectable="0" vertex="1">
          <mxGeometry x="1" relative="1" as="geometry">
            <mxPoint y="-67" as="offset" />
          </mxGeometry>
        </mxCell>
        <mxCell id="tIXtD5bHyuyZXCzXMCX1-60" value="" style="endArrow=none;html=1;rounded=0;entryX=0.5;entryY=0;entryDx=0;entryDy=0;" parent="1" target="tIXtD5bHyuyZXCzXMCX1-57" edge="1">
          <mxGeometry relative="1" as="geometry">
            <mxPoint x="810" y="-20" as="sourcePoint" />
            <mxPoint x="970" y="-20" as="targetPoint" />
          </mxGeometry>
        </mxCell>
        <mxCell id="tIXtD5bHyuyZXCzXMCX1-61" value="N" style="resizable=0;html=1;whiteSpace=wrap;align=right;verticalAlign=bottom;" parent="tIXtD5bHyuyZXCzXMCX1-60" connectable="0" vertex="1">
          <mxGeometry x="1" relative="1" as="geometry">
            <mxPoint x="70" y="-57" as="offset" />
          </mxGeometry>
        </mxCell>
        <mxCell id="tIXtD5bHyuyZXCzXMCX1-63" value="&lt;font style=&quot;font-size: 18px;&quot;&gt;Tracks&lt;/font&gt;" style="shape=rhombus;double=1;perimeter=rhombusPerimeter;whiteSpace=wrap;html=1;align=center;" parent="1" vertex="1">
          <mxGeometry x="90" y="495" width="130" height="80" as="geometry" />
        </mxCell>
        <mxCell id="tIXtD5bHyuyZXCzXMCX1-64" value="&lt;font style=&quot;font-size: 18px;&quot;&gt;Comments&lt;/font&gt;" style="shape=ext;margin=3;double=1;whiteSpace=wrap;html=1;align=center;" parent="1" vertex="1">
          <mxGeometry x="-660" y="408" width="150" height="70" as="geometry" />
        </mxCell>
        <mxCell id="tIXtD5bHyuyZXCzXMCX1-66" value="&lt;font style=&quot;font-size: 18px;&quot;&gt;Maintains&lt;/font&gt;" style="shape=rhombus;double=1;perimeter=rhombusPerimeter;whiteSpace=wrap;html=1;align=center;" parent="1" vertex="1">
          <mxGeometry x="280" y="40" width="150" height="80" as="geometry" />
        </mxCell>
        <mxCell id="tIXtD5bHyuyZXCzXMCX1-68" value="&lt;font style=&quot;font-size: 18px;&quot;&gt;Has&lt;/font&gt;" style="shape=rhombus;double=1;perimeter=rhombusPerimeter;whiteSpace=wrap;html=1;align=center;" parent="1" vertex="1">
          <mxGeometry x="-370" y="350" width="140" height="90" as="geometry" />
        </mxCell>
        <mxCell id="tIXtD5bHyuyZXCzXMCX1-69" value="&lt;font style=&quot;font-size: 18px;&quot;&gt;Sets&lt;/font&gt;" style="shape=rhombus;double=1;perimeter=rhombusPerimeter;whiteSpace=wrap;html=1;align=center;" parent="1" vertex="1">
          <mxGeometry x="265" y="470" width="130" height="70" as="geometry" />
        </mxCell>
        <mxCell id="tIXtD5bHyuyZXCzXMCX1-70" value="&lt;span style=&quot;border-bottom: 1px dotted&quot;&gt;CommentID&lt;/span&gt;" style="ellipse;whiteSpace=wrap;html=1;align=center;" parent="1" vertex="1">
          <mxGeometry x="-900" y="405" width="120" height="50" as="geometry" />
        </mxCell>
        <mxCell id="iB2jxMXtepU5a1roNsc_-1" value="Description" style="ellipse;whiteSpace=wrap;html=1;" vertex="1" parent="1">
          <mxGeometry x="-390" y="1067" width="180" height="73" as="geometry" />
        </mxCell>
        <mxCell id="iB2jxMXtepU5a1roNsc_-3" value="WRITES" style="shape=rhombus;double=1;perimeter=rhombusPerimeter;whiteSpace=wrap;html=1;align=center;" vertex="1" parent="1">
          <mxGeometry x="-510" y="230" width="120" height="90" as="geometry" />
        </mxCell>
        <mxCell id="iB2jxMXtepU5a1roNsc_-4" value="AGE" style="ellipse;whiteSpace=wrap;html=1;rounded=0;" vertex="1" parent="1">
          <mxGeometry x="-180" y="-310" width="140" height="60" as="geometry" />
        </mxCell>
        <mxCell id="iB2jxMXtepU5a1roNsc_-6" value="JOINDATE" style="ellipse;whiteSpace=wrap;html=1;rounded=0;" vertex="1" parent="1">
          <mxGeometry x="-50" y="-250" width="140" height="80" as="geometry" />
        </mxCell>
        <mxCell id="iB2jxMXtepU5a1roNsc_-8" value="SECUREKEY" style="ellipse;whiteSpace=wrap;html=1;rounded=0;fontFamily=Helvetica;fontSize=11;fontColor=default;labelBackgroundColor=default;" vertex="1" parent="1">
          <mxGeometry x="-575" y="-390" width="145" height="70" as="geometry" />
        </mxCell>
        <mxCell id="iB2jxMXtepU5a1roNsc_-11" value="ADMINLEVELS" style="ellipse;whiteSpace=wrap;html=1;rounded=0;fontFamily=Helvetica;fontSize=11;fontColor=default;labelBackgroundColor=default;" vertex="1" parent="1">
          <mxGeometry x="-365" y="-410" width="160" height="80" as="geometry" />
        </mxCell>
        <mxCell id="iB2jxMXtepU5a1roNsc_-13" value="&lt;h1 style=&quot;margin-top: 0px;&quot;&gt;&lt;font style=&quot;font-size: 37px;&quot;&gt;Assumptions&lt;/font&gt;&lt;/h1&gt;&lt;p&gt;&lt;/p&gt;&lt;ul style=&quot;line-height: 160%;&quot;&gt;&lt;li&gt;&lt;font style=&quot;font-size: 20px; line-height: 160%;&quot;&gt;Admin has a second level of security which uses a SecureKey. This key is unique for every admin&lt;/font&gt;&lt;/li&gt;&lt;li&gt;&lt;font style=&quot;font-size: 20px; line-height: 160%;&quot;&gt;There can be a number of levels for the admin. The admin level is determined by the highest admin level&lt;/font&gt;&lt;/li&gt;&lt;li&gt;&lt;font style=&quot;font-size: 20px; line-height: 160%;&quot;&gt;Group: Groups are formed by users. A user can only be 1 group at a time. A group can have n members.&lt;/font&gt;&lt;/li&gt;&lt;li&gt;&lt;font style=&quot;font-size: 20px; line-height: 160%;&quot;&gt;Rewards/Penalties: these are the rewards and penalties that the users receive for staying on track or not following their goals&lt;/font&gt;&lt;/li&gt;&lt;li&gt;&lt;font style=&quot;font-size: 20px; line-height: 160%;&quot;&gt;Achievements: Achievements are implemented like a video game. A user can unlock achievements by following the instructions in their description. These are common to all the users. A user can earn n achievements. An achievement can be unlocked by n user. Hence, the N:N relationship.&lt;/font&gt;&lt;/li&gt;&lt;li&gt;&lt;font style=&quot;font-size: 20px; line-height: 160%;&quot;&gt;Goals are the personal goals set by the user. These are unique to every user.&amp;nbsp;&lt;/font&gt;&lt;/li&gt;&lt;li&gt;&lt;font style=&quot;font-size: 20px; line-height: 160%;&quot;&gt;Habits are the personal habits tracked by the user. This can include reminders to follow the habit set by the user. These are also unique to every user.&lt;/font&gt;&lt;/li&gt;&lt;li&gt;&lt;font style=&quot;font-size: 20px; line-height: 160%;&quot;&gt;Comments are added by the user to add any information they want to add to the habit outside of the attributes that habit has.&lt;/font&gt;&lt;/li&gt;&lt;li&gt;&lt;font style=&quot;font-size: 20px; line-height: 160%;&quot;&gt;A streak is created when a user completes their daily tasks continuously for a number of days. The number of days is the length of the streak. This can motivate users to not fall out of their habits. Streaks are both maintained by groups and individual users. LongestStreak is the length of the longest streak the user has had.&lt;/font&gt;&lt;/li&gt;&lt;/ul&gt;&lt;p&gt;&lt;/p&gt;" style="text;html=1;whiteSpace=wrap;overflow=hidden;rounded=0;fontFamily=Helvetica;fontSize=11;fontColor=default;labelBackgroundColor=default;" vertex="1" parent="1">
          <mxGeometry x="-912" y="1240" width="2270" height="460" as="geometry" />
        </mxCell>
        <mxCell id="iB2jxMXtepU5a1roNsc_-14" value="MAINTAINS" style="shape=rhombus;double=1;perimeter=rhombusPerimeter;whiteSpace=wrap;html=1;align=center;fontFamily=Helvetica;fontSize=11;fontColor=default;labelBackgroundColor=default;" vertex="1" parent="1">
          <mxGeometry x="540" y="-170" width="120" height="60" as="geometry" />
        </mxCell>
        <mxCell id="iB2jxMXtepU5a1roNsc_-15" value="&lt;font style=&quot;font-size: 18px;&quot;&gt;LongestStreak&lt;/font&gt;" style="ellipse;whiteSpace=wrap;html=1;align=center;" vertex="1" parent="1">
          <mxGeometry x="12.5" y="-360" width="130" height="60" as="geometry" />
        </mxCell>
        <mxCell id="iB2jxMXtepU5a1roNsc_-17" value="DESCRIPTION" style="ellipse;whiteSpace=wrap;html=1;rounded=0;fontFamily=Helvetica;fontSize=11;fontColor=default;labelBackgroundColor=default;" vertex="1" parent="1">
          <mxGeometry x="660" y="655" width="140" height="85" as="geometry" />
        </mxCell>
        <mxCell id="iB2jxMXtepU5a1roNsc_-19" value="&lt;b&gt;&lt;font style=&quot;font-size: 30px;&quot;&gt;EER DIAGRAM&lt;/font&gt;&lt;/b&gt;" style="shape=umlFrame;whiteSpace=wrap;html=1;pointerEvents=0;fontFamily=Helvetica;fontSize=11;fontColor=default;labelBackgroundColor=default;width=302;height=100;" vertex="1" parent="1">
          <mxGeometry x="-992" y="-490" width="2480" height="2240" as="geometry" />
        </mxCell>
      </root>
    </mxGraphModel>
  </diagram>
</mxfile>
